<svg width="180" height="50" viewBox="0 0 180 50" fill="none" xmlns="http://www.w3.org/2000/svg">

  <g transform="translate(5, 5) scale(0.9)">

    <path d="M25 36C25 36 10 25 10 16C10 11 13 7 18 7C21 7 23 9 25 12C27 9 29 7 32 7C37 7 40 11 40 16C40 25 25 36 25 36Z" fill="#38161f"/>
    
  
    <polygon points="6,5 7,8 10,9 7,10 6,13 5,10 2,9 5,8" fill="#ff425d"/>
   
    <polygon points="44,5 45,8 48,9 45,10 44,13 43,10 40,9 43,8" fill="#FFD700"/>

    <polygon points="48,20 49,23 52,24 49,25 48,28 47,25 44,24 47,23" fill="#ff425d"/>

    <polygon points="2,20 3,23 6,24 3,25 2,28 1,25 -2,24 1,23" fill="#FFD700"/>
  </g>
  
  <text x="63" y="33" font-family="Poppins, sans-serif" font-size="24" font-weight="600" fill="#38161f">wish<tspan font-style="italic">it</tspan></text>
</svg>
